<svg xmlns="http://www.w3.org/2000/svg" viewBox="0 0 500 500"><defs><style>.cls-1{fill:#1e1e1e;}.cls-2{fill:#fff;}</style></defs><title>social_icons_v2_(graphicsland.ru)</title><g id="Var2"><g id="Круги"><path class="cls-1" d="M246,31.84h0c-122.9,0-222.53,99.63-222.53,222.54h0C23.46,377.22,123,476.8,245.88,476.8h.22c122.84,0,222.42-99.58,222.42-222.42h0C468.52,131.47,368.89,31.84,246,31.84Z"/></g><g id="Иконки-2" data-name="Иконки"><path id="telegram" class="cls-2" d="M323.44,163.67l-219.13,83c-12,3.46-11.61,15.3-2.74,18.15l54.9,17.13,21,64.41c2.55,7.05,4.64,9.71,9,9.77,4.59.06,6.34-1.61,11.1-5.82,5.58-5.23,14.06-13.47,27.48-26.52L282.17,366c10.51,5.8,18.1,2.8,20.72-9.76l35.8-177.12C342.53,163.7,333.49,159.11,323.44,163.67ZM165.09,278l124.83-78.32c6.15-4.13,8.07.48,5.3,3.66l-103.6,93.19L186.3,343Z"/></g></g></svg>