<svg xmlns="http://www.w3.org/2000/svg" viewBox="0 0 500 500"><defs><style>.cls-1{fill:#fff;}.cls-2{fill:#1e1e1e;fill-rule:evenodd;}</style></defs><title>5</title><g id="Var2"><g id="Круги"><path class="cls-1" d="M246,31.84h0c-122.9,0-222.53,99.63-222.53,222.54h0C23.46,377.22,123,476.8,245.88,476.8h.22c122.84,0,222.42-99.58,222.42-222.42h0C468.52,131.47,368.89,31.84,246,31.84Z"/></g><g id="Иконки-2" data-name="Иконки"><path class="cls-2" d="M242.42,21.86c123.18,0,223.15,100,223.15,223.15s-100,223.15-223.15,223.15S19.27,368.19,19.27,245,119.24,21.86,242.42,21.86ZM354.14,156l-216.6-.59,108.3,86ZM220.25,265.39,125.64,191V332.33h234V194l-87.77,71.71C242.12,289.94,251.05,289.49,220.25,265.39Zm-93.42-137H360.24a34.32,34.32,0,0,1,34.22,34.22V326.24a34.31,34.31,0,0,1-34.22,34.21H126.83a34.31,34.31,0,0,1-34.22-34.21V162.59A34.32,34.32,0,0,1,126.83,128.37Z"/></g></g></svg>