<svg xmlns="http://www.w3.org/2000/svg" viewBox="0 0 500 500"><defs><style>.cls-1{fill:#1e1e1e;}.cls-2{fill:#fff;}</style></defs><title>2</title><g id="Var2"><g id="Круги"><path class="cls-1" d="M246,31.84h0c-122.9,0-222.53,99.63-222.53,222.54h0C23.46,377.22,123,476.8,245.88,476.8h.22c122.84,0,222.42-99.58,222.42-222.42h0C468.52,131.47,368.89,31.84,246,31.84Z"/></g><g id="Иконки-2" data-name="Иконки"><path id="twitter" class="cls-2" d="M368.26,188.3A98.5,98.5,0,0,1,340,196.05a49.37,49.37,0,0,0,21.64-27.23,98.38,98.38,0,0,1-31.25,12,49.25,49.25,0,0,0-83.86,44.88A139.67,139.67,0,0,1,145.1,174.23a49.24,49.24,0,0,0,15.23,65.7A48.86,48.86,0,0,1,138,233.78c0,.2,0,.41,0,.62a49.25,49.25,0,0,0,39.48,48.25,49.09,49.09,0,0,1-13,1.73,49.61,49.61,0,0,1-9.26-.88,49.28,49.28,0,0,0,46,34.17,98.72,98.72,0,0,1-61.11,21.07,101.12,101.12,0,0,1-11.74-.69,139.3,139.3,0,0,0,75.43,22.11c90.52,0,140-75,140-140q0-3.19-.14-6.36A100,100,0,0,0,368.26,188.3Z"/></g></g></svg>